{
	"asset":{
		"generator":"Khronos glTF Blender I/O v4.2.60",
		"version":"2.0"
	},
	"scene":0,
	"scenes":[
		{
			"name":"Scene",
			"nodes":[
				0
			]
		}
	],
	"nodes":[
		{
			"mesh":0,
			"name":"shaft",
			"translation":[
				2.10479998588562,
				0,
				-1.5750000476837158
			]
		}
	],
	"materials":[
		{
			"doubleSided":true,
			"name":"M_Model",
			"pbrMetallicRoughness":{
				"baseColorFactor":[
					0.800000011920929,
					0.800000011920929,
					0.800000011920929,
					1
				],
				"metallicFactor":0,
				"roughnessFactor":0.5
			}
		}
	],
	"meshes":[
		{
			"name":"102/3967.001",
			"primitives":[
				{
					"attributes":{
						"POSITION":0,
						"NORMAL":1
					},
					"indices":2,
					"material":0
				}
			]
		}
	],
	"accessors":[
		{
			"bufferView":0,
			"componentType":5126,
			"count":1824,
			"max":[
				0.14000000059604645,
				19.15999984741211,
				1.7749998569488525
			],
			"min":[
				-1.8000001907348633,
				-1.0499999523162842,
				-0.10499999672174454
			],
			"type":"VEC3"
		},
		{
			"bufferView":1,
			"componentType":5126,
			"count":1824,
			"type":"VEC3"
		},
		{
			"bufferView":2,
			"componentType":5123,
			"count":3312,
			"type":"SCALAR"
		}
	],
	"bufferViews":[
		{
			"buffer":0,
			"byteLength":21888,
			"byteOffset":0,
			"target":34962
		},
		{
			"buffer":0,
			"byteLength":21888,
			"byteOffset":21888,
			"target":34962
		},
		{
			"buffer":0,
			"byteLength":6624,
			"byteOffset":43776,
			"target":34963
		}
	],
	"buffers":[
		{
			"byteLength":50400,
			"uri":"shaft.bin"
		}
	]
}
