{
	"asset":{
		"generator":"Khronos glTF Blender I/O v4.2.60",
		"version":"2.0"
	},
	"scene":0,
	"scenes":[
		{
			"name":"Scene",
			"nodes":[
				0
			]
		}
	],
	"nodes":[
		{
			"mesh":0,
			"name":"elevator",
			"translation":[
				1.1197999715805054,
				0,
				-0.8899999856948853
			]
		}
	],
	"materials":[
		{
			"doubleSided":true,
			"name":"M_Model",
			"pbrMetallicRoughness":{
				"baseColorFactor":[
					0.800000011920929,
					0.800000011920929,
					0.800000011920929,
					1
				],
				"metallicFactor":0,
				"roughnessFactor":0.5
			}
		}
	],
	"meshes":[
		{
			"name":"102/8102.002",
			"primitives":[
				{
					"attributes":{
						"POSITION":0,
						"NORMAL":1
					},
					"indices":2,
					"material":0
				}
			]
		}
	],
	"accessors":[
		{
			"bufferView":0,
			"componentType":5126,
			"count":2100,
			"max":[
				0.5040000081062317,
				2.1040000915527344,
				0.7400000095367432
			],
			"min":[
				-0.7449999451637268,
				-0.029999999329447746,
				-0.6290000081062317
			],
			"type":"VEC3"
		},
		{
			"bufferView":1,
			"componentType":5126,
			"count":2100,
			"type":"VEC3"
		},
		{
			"bufferView":2,
			"componentType":5123,
			"count":3864,
			"type":"SCALAR"
		}
	],
	"bufferViews":[
		{
			"buffer":0,
			"byteLength":25200,
			"byteOffset":0,
			"target":34962
		},
		{
			"buffer":0,
			"byteLength":25200,
			"byteOffset":25200,
			"target":34962
		},
		{
			"buffer":0,
			"byteLength":7728,
			"byteOffset":50400,
			"target":34963
		}
	],
	"buffers":[
		{
			"byteLength":58128,
			"uri":"elevator.bin"
		}
	]
}
