{
	"asset":{
		"generator":"Khronos glTF Blender I/O v4.2.60",
		"version":"2.0"
	},
	"scene":0,
	"scenes":[
		{
			"name":"Scene",
			"nodes":[
				0
			]
		}
	],
	"nodes":[
		{
			"mesh":0,
			"name":"shaft",
			"translation":[
				2.124799966812134,
				0,
				-1.5750000476837158
			]
		}
	],
	"materials":[
		{
			"doubleSided":true,
			"name":"M_Model",
			"pbrMetallicRoughness":{
				"baseColorFactor":[
					0.800000011920929,
					0.800000011920929,
					0.800000011920929,
					1
				],
				"metallicFactor":0,
				"roughnessFactor":0.5
			}
		}
	],
	"meshes":[
		{
			"name":"102/5013.002",
			"primitives":[
				{
					"attributes":{
						"POSITION":0,
						"NORMAL":1
					},
					"indices":2,
					"material":0
				}
			]
		}
	],
	"accessors":[
		{
			"bufferView":0,
			"componentType":5126,
			"count":3596,
			"max":[
				-0.3499999940395355,
				33.849971771240234,
				1.7750002145767212
			],
			"min":[
				-1.820000171661377,
				-1.0499999523162842,
				-0.014999999664723873
			],
			"type":"VEC3"
		},
		{
			"bufferView":1,
			"componentType":5126,
			"count":3596,
			"type":"VEC3"
		},
		{
			"bufferView":2,
			"componentType":5123,
			"count":6036,
			"type":"SCALAR"
		}
	],
	"bufferViews":[
		{
			"buffer":0,
			"byteLength":43152,
			"byteOffset":0,
			"target":34962
		},
		{
			"buffer":0,
			"byteLength":43152,
			"byteOffset":43152,
			"target":34962
		},
		{
			"buffer":0,
			"byteLength":12072,
			"byteOffset":86304,
			"target":34963
		}
	],
	"buffers":[
		{
			"byteLength":98376,
			"uri":"shaft.bin"
		}
	]
}
